<!-- Generated by IcoMoon.io -->
<svg version="1.1" xmlns="http://www.w3.org/2000/svg" width="1195" height="1024" viewBox="0 0 1195 1024">
<title></title>
<g id="icomoon-ignore">
</g>
<path fill="#2c2c2c" d="M372.273 445.973l297.227 283.2c4.958 4.727 11.548 7.366 18.4 7.366 6.85 0 13.44-2.639 18.398-7.366l0.322-0.32c2.411-2.291 4.333-5.050 5.645-8.109 1.314-3.057 1.99-6.349 1.99-9.677s-0.676-6.622-1.99-9.679c-1.312-3.057-3.234-5.815-5.645-8.109l-279.893-266.667 279.893-266.559c2.411-2.292 4.333-5.051 5.645-8.108 1.314-3.058 1.99-6.351 1.99-9.678s-0.676-6.62-1.99-9.678c-1.312-3.058-3.234-5.817-5.645-8.108l-0.32-0.32c-4.96-4.728-11.55-7.365-18.4-7.365-6.852 0-13.442 2.637-18.4 7.365l-297.227 283.199c-2.615 2.492-4.695 5.487-6.118 8.804-1.421 3.319-2.155 6.893-2.155 10.502 0 3.612 0.734 7.185 2.155 10.502 1.423 3.319 3.503 6.315 6.118 8.804z"></path>
<path fill="#fefefe" d="M85.333 682.667v-512c0-94.257 76.41-170.667 170.667-170.667h682.667c94.257 0 170.667 76.41 170.667 170.667v512c0 94.257-76.41 170.667-170.667 170.667h-682.667c-94.257 0-170.667-76.41-170.667-170.667z"></path>
</svg>
